<?xml version="1.0" standalone="no"?>
<!DOCTYPE svg PUBLIC "-//W3C//DTD SVG 20010904//EN"
 "http://www.w3.org/TR/2001/REC-SVG-20010904/DTD/svg10.dtd">
<svg version="1.0" xmlns="http://www.w3.org/2000/svg"
 width="550.000000pt" height="550.000000pt" viewBox="0 0 550.000000 550.000000"
 preserveAspectRatio="xMidYMid meet">

<g transform="translate(0.000000,550.000000) scale(0.100000,-0.100000)"
fill="#000000" stroke="none">
<path d="M2404 4036 c4 -49 12 -75 23 -83 20 -15 73 -17 73 -3 0 5 7 7 15 4
11 -5 15 1 15 22 0 15 7 35 16 45 9 10 17 33 17 51 l2 33 -84 1 -84 0 7 -70z"/>
<path d="M2740 4063 c0 -13 4 -23 9 -23 5 0 6 -20 3 -45 -6 -58 8 -75 64 -75
36 0 43 3 42 18 -3 39 2 63 13 56 16 -9 29 15 29 53 0 38 -14 44 -102 40 -53
-2 -58 -4 -58 -24z m40 -89 c0 -8 -5 -12 -10 -9 -6 4 -8 11 -5 16 9 14 15 11
15 -7z"/>
<path d="M3075 4013 c13 -117 10 -113 68 -113 29 0 59 5 67 10 10 6 11 10 3
10 -18 0 -16 20 2 34 9 6 18 34 22 64 l6 52 -87 0 -87 0 6 -57z"/>
<path d="M2090 3772 c-42 -14 -160 -113 -160 -133 0 -4 16 -19 36 -34 35 -27
37 -27 64 -11 21 12 53 16 119 16 l91 0 0 59 c0 33 4 61 9 63 5 2 11 12 13 23
3 19 -3 20 -77 21 -44 1 -87 -1 -95 -4z"/>
<path d="M2454 3694 c5 -73 10 -85 29 -62 17 22 54 29 61 11 9 -22 26 -5 26
27 0 23 3 27 20 23 17 -5 20 0 20 31 l0 36 -80 0 -80 0 4 -66z"/>
<path d="M2795 3730 c-3 -5 -1 -27 5 -47 11 -43 30 -76 30 -55 0 7 12 17 26
23 30 11 47 3 24 -11 -13 -8 -13 -11 -1 -22 11 -11 14 -11 19 1 2 7 14 23 25
34 11 11 22 35 24 54 l3 33 -74 0 c-41 0 -78 -4 -81 -10z"/>
<path d="M3125 3718 c-2 -7 1 -44 8 -83 l12 -70 44 -3 c46 -3 61 7 61 42 0 11
7 27 15 36 8 9 16 31 17 50 l3 35 -78 3 c-56 2 -78 -1 -82 -10z"/>
<path d="M3460 3677 c0 -66 20 -137 39 -137 25 0 41 20 41 50 0 14 6 32 12 38
10 10 10 17 0 32 -10 16 -9 21 6 29 15 10 15 10 -3 11 -11 0 -37 3 -57 6 l-38
7 0 -36z"/>
<path d="M2901 3584 c0 -11 3 -14 6 -6 3 7 2 16 -1 19 -3 4 -6 -2 -5 -13z"/>
<path d="M2178 3410 c-54 -9 -68 -16 -68 -34 0 -9 -9 -12 -24 -9 -17 4 -35 -5
-65 -32 -48 -43 -50 -57 -16 -75 14 -7 25 -18 25 -24 0 -6 5 -4 10 4 8 13 10
12 10 -2 0 -22 9 -22 34 -3 14 11 47 15 114 15 93 0 94 0 88 23 -3 12 -6 28
-6 35 0 10 -10 12 -36 9 -27 -4 -41 0 -55 14 -10 10 -28 19 -40 19 -15 0 -19
4 -15 16 3 9 6 18 6 20 0 8 36 4 90 -10 50 -14 56 -13 68 1 32 43 -4 52 -120
33z"/>
<path d="M2509 3408 c-1 -2 -3 -14 -4 -28 -4 -37 12 -60 42 -60 15 0 35 -8 45
-17 18 -16 20 -16 43 12 16 20 24 40 22 60 l-2 30 -72 3 c-40 2 -74 2 -74 0z"/>
<path d="M2842 3353 c3 -36 5 -38 48 -45 25 -4 46 -12 48 -18 2 -5 12 -10 21
-10 20 0 38 31 45 78 l4 32 -84 0 -85 0 3 -37z"/>
<path d="M3212 3380 c-38 -6 -37 0 -28 -91 8 -75 7 -75 75 -82 l43 -5 -5 44
c-4 36 -2 42 9 34 17 -15 34 17 34 63 0 35 -1 35 -47 39 -27 1 -63 1 -81 -2z"/>
<path d="M3510 3344 c0 -45 25 -147 38 -151 22 -9 43 21 46 68 2 24 6 54 10
65 6 19 2 22 -31 28 -56 9 -63 8 -63 -10z"/>
<path d="M2597 3263 c-14 -4 -16 -8 -6 -19 16 -20 51 -18 47 3 -3 18 -14 23
-41 16z"/>
<path d="M2880 3220 c20 -13 100 -13 100 0 0 6 -26 10 -57 10 -41 0 -54 -3
-43 -10z"/>
<path d="M2568 3053 c-29 -8 -24 -70 8 -100 16 -15 24 -31 21 -42 -3 -14 4
-21 33 -30 52 -15 60 -14 60 9 0 11 6 19 13 18 8 -2 13 18 15 70 2 39 -1 72
-5 73 -81 5 -131 6 -145 2z m72 -154 c0 -6 -4 -7 -10 -4 -5 3 -10 11 -10 16 0
6 5 7 10 4 6 -3 10 -11 10 -16z"/>
<path d="M2890 3018 c0 -13 3 -40 6 -60 6 -36 8 -38 46 -38 24 0 37 -4 33 -10
-3 -5 -20 -10 -36 -10 -17 0 -28 -4 -25 -9 3 -5 29 -8 58 -8 60 1 88 22 88 67
0 15 3 42 6 59 l7 31 -92 0 c-88 0 -91 -1 -91 -22z"/>
<path d="M3248 3033 c-24 -6 -23 -38 3 -117 23 -71 38 -81 108 -71 39 5 50 13
34 23 -8 5 -9 13 -3 22 6 8 10 43 10 78 l0 62 -39 0 c-21 0 -51 2 -67 4 -16 2
-37 2 -46 -1z"/>
<path d="M2238 2697 c-47 -14 -91 -42 -140 -92 -33 -33 -34 -36 -9 -61 54 -56
61 -58 110 -40 26 9 76 16 114 16 65 0 67 1 67 25 0 14 -4 25 -10 25 -5 0 -10
11 -10 25 0 18 5 25 19 25 13 0 23 11 31 36 7 19 10 38 7 41 -13 12 -135 12
-179 0z"/>
<path d="M2602 2660 c0 -42 18 -70 44 -70 8 0 14 -4 14 -9 0 -14 -26 -32 -34
-23 -5 4 -6 -4 -4 -18 3 -23 8 -25 61 -28 47 -2 57 0 57 13 0 10 5 14 13 10 6
-4 -1 5 -17 18 -19 16 -27 31 -23 41 9 24 24 19 31 -9 11 -43 26 -17 26 44 0
68 -4 71 -107 71 l-62 0 1 -40z"/>
<path d="M2950 2646 c0 -42 2 -45 36 -56 40 -14 40 -33 0 -38 -20 -3 -26 -8
-22 -19 3 -8 6 -19 6 -24 0 -5 31 -9 70 -9 l70 0 -4 29 c-2 16 1 55 6 87 11
71 7 74 -89 74 l-73 0 0 -44z m133 -66 c3 -11 1 -18 -4 -14 -5 3 -9 12 -9 20
0 20 7 17 13 -6z"/>
<path d="M3287 2674 c-12 -12 5 -58 27 -76 11 -10 34 -18 50 -18 24 0 27 -2
16 -15 -7 -8 -28 -15 -46 -15 -32 0 -34 -2 -28 -27 4 -16 7 -29 8 -30 1 -1 24
-3 51 -4 49 -3 50 -3 53 26 2 17 8 35 13 40 7 7 8 3 4 -10 -5 -17 -5 -17 4 -4
6 9 13 41 17 71 6 52 5 55 -17 61 -31 9 -144 9 -152 1z"/>
<path d="M3625 2649 c-6 -9 15 -130 26 -151 10 -19 31 -21 30 -3 0 6 6 17 13
25 7 8 13 40 14 72 l0 56 -40 4 c-22 2 -41 1 -43 -3z"/>
<path d="M2693 2183 c-7 -3 -13 -10 -13 -17 0 -17 -39 -47 -58 -44 -9 1 -23
-1 -30 -6 -7 -4 -19 -3 -26 3 -10 8 -17 7 -26 -4 -9 -11 -15 -13 -20 -5 -4 6
-27 14 -51 17 -24 3 -63 12 -86 20 -43 16 -63 12 -63 -13 0 -8 -3 -14 -7 -14
-5 0 -8 -16 -9 -35 0 -19 3 -35 8 -35 5 0 6 -4 3 -10 -8 -14 -36 -13 -33 1 2
6 -4 13 -13 14 -10 2 -16 -4 -15 -14 1 -10 -8 -17 -26 -19 -20 -2 -28 -9 -28
-23 0 -15 -5 -19 -18 -15 -12 4 -21 -1 -27 -16 -7 -16 -23 -25 -52 -31 -72
-14 -48 -27 50 -27 61 0 99 5 112 13 34 23 64 27 74 9 7 -13 11 -8 16 21 6 31
11 37 29 35 13 -2 21 3 21 11 0 31 22 19 31 -16 l9 -38 128 1 127 0 9 -30 c8
-27 9 -24 10 27 1 54 15 75 27 42 8 -19 25 -9 22 12 -6 35 20 22 29 -14 l9
-38 124 0 c99 0 128 -3 137 -15 10 -12 12 -7 13 31 0 44 0 45 34 46 31 1 36
-3 41 -28 4 -16 10 -31 15 -34 20 -12 181 -17 212 -6 36 13 57 1 33 -19 -20
-17 -19 -27 6 -33 19 -5 20 -2 18 51 -2 36 1 57 9 60 7 2 12 -2 12 -10 0 -8 4
-7 11 5 5 9 15 17 21 17 6 0 17 -8 25 -17 13 -16 13 -15 9 12 -5 25 -1 34 28
55 31 23 32 26 15 38 -10 7 -37 14 -60 16 -23 2 -44 7 -48 12 -3 5 -16 17 -27
27 -21 18 -23 18 -47 -9 -20 -21 -32 -26 -61 -22 -33 4 -36 2 -37 -22 -1 -23
-3 -20 -15 18 -3 10 -9 10 -24 2 -11 -6 -26 -7 -33 -3 -6 4 -20 6 -30 5 -10
-2 -24 2 -32 8 -8 7 -19 9 -26 5 -6 -4 -21 3 -33 17 -23 27 -56 33 -56 11 0
-7 -5 -13 -11 -13 -6 0 -18 -9 -28 -21 -15 -19 -18 -19 -46 -5 -18 10 -42 14
-61 10 -44 -8 -144 13 -168 35 -12 10 -27 16 -33 14z m-103 -99 c0 -8 -5 -12
-10 -9 -6 4 -8 11 -5 16 9 14 15 11 15 -7z m796 -29 l29 -25 -51 0 c-34 0 -56
-5 -64 -15 -7 -8 -27 -15 -44 -14 l-31 1 34 9 c46 14 34 20 -36 21 l-58 0 40
15 c22 8 52 12 67 9 16 -3 31 0 38 9 18 22 43 18 76 -10z m-816 6 c0 -5 -13
-11 -30 -13 -32 -5 -42 7 -12 15 29 8 42 7 42 -2z m116 -13 c3 -4 -8 -8 -23
-8 -16 0 -34 -5 -40 -11 -14 -14 -86 -19 -105 -8 -15 10 -5 12 55 9 22 -1 37
3 37 10 0 6 -4 9 -9 5 -5 -3 -12 -1 -16 4 -3 6 15 9 45 9 28 -1 53 -5 56 -10z
m94 2 c0 -5 -4 -10 -10 -10 -5 0 -10 5 -10 10 0 6 5 10 10 10 6 0 10 -4 10
-10z m263 1 c4 -1 7 -6 7 -12 0 -13 -62 -8 -67 6 -3 9 15 11 60 6z m449 -13
c-6 -6 -15 -8 -19 -4 -4 4 -1 11 7 16 19 12 27 3 12 -12z m-519 -20 c-6 -11
-123 -10 -123 0 0 5 29 9 64 8 35 -1 62 -4 59 -8z"/>
<path d="M3632 2080 c0 -14 2 -19 5 -12 2 6 2 18 0 25 -3 6 -5 1 -5 -13z"/>
<path d="M2205 2040 c-3 -6 1 -7 9 -4 18 7 21 14 7 14 -6 0 -13 -4 -16 -10z"/>
<path d="M3510 1905 c0 -8 4 -15 10 -15 5 0 7 7 4 15 -4 8 -8 15 -10 15 -2 0
-4 -7 -4 -15z"/>
<path d="M3531 1684 c0 -11 3 -14 6 -6 3 7 2 16 -1 19 -3 4 -6 -2 -5 -13z"/>
</g>
</svg>
